<svg xmlns="http://www.w3.org/2000/svg" width="702" height="144" viewBox="0 0 701.6 144"><path d="M41 30.3l-3.7-4.4c-1.6 1.5-2.9 2.1-4.6 2.1 -1.6 0-2.7-0.6-3.5-1.7 -0.8-1.3-0.9-3.1-0.4-5.9 0.5-2.8 1.3-4.6 2.5-5.8 1.2-1.2 2.5-1.7 4.1-1.7 1.7 0 2.8 0.6 3.9 2.1l5.3-4.5c-1.9-2.4-4.4-3.6-8.1-3.6 -5.3 0-12.3 2.8-14.2 13.5 -1.9 10.7 4.2 13.6 9.4 13.6C35.2 33.9 38.2 32.8 41 30.3z"/><path d="M60.9 30.7c2.8-2.5 4-5.5 4.8-10.3 0.8-4.8 0.8-7.8-1.2-10.3 -1.3-1.7-3.7-3.2-7.7-3.2 -3.9 0-6.8 1.5-8.8 3.2 -2.8 2.5-4 5.5-4.8 10.3 -0.8 4.8-0.8 7.8 1.2 10.3 1.3 1.7 3.7 3.3 7.6 3.3C56 33.9 58.9 32.4 60.9 30.7zM49.9 20.4c0.5-2.7 1-5 2.7-6.4 0.9-0.8 1.9-1.2 3.3-1.2s2.3 0.4 2.9 1.2c1.1 1.4 0.9 3.7 0.4 6.4 -0.5 2.7-1 5.1-2.7 6.5 -0.9 0.8-2 1.2-3.3 1.2 -1.3 0-2.2-0.4-2.8-1.2C49.1 25.5 49.4 23.1 49.9 20.4z"/><path d="M107.5 16.7c0.5-2.9 0.2-5.4-1.6-7.5 -1.2-1.5-3.4-2.3-6.1-2.3 -3.3 0-5.9 1-8.5 3.4 -1.3-2.3-3.5-3.3-6.4-3.3 -2.4 0-5 1-7.1 2.7l0.4-2.4h-6.5l-4.7 26.5h6.6l2.8-16c0.6-3.6 3.2-4.8 5.3-4.8s4.2 1.2 3.5 4.8l-2.8 16h6.6l2.8-16.2c0.6-3.5 3.2-4.7 5.2-4.7 2.1 0 4.2 1.2 3.5 4.8l-2.8 16h6.6L107.5 16.7z"/><path d="M128.9 31.6c3.1-2.6 4-7.2 4.7-11.2 0.7-4 1.4-8.5-0.7-11.1 -1.2-1.5-3.4-2.4-6-2.4 -2.8 0-4.9 0.8-7.1 2.8l0.4-2.5h-6.4l-6.4 36.2h6.6l2.1-12c1.4 1.9 3.2 2.6 5.9 2.6C124.6 33.9 127.2 33 128.9 31.6zM118 20.4c0.8-4.3 1.8-7.6 5.8-7.6 4 0 3.9 3.3 3.1 7.6 -0.8 4.3-1.9 7.6-5.8 7.6C117.2 28 117.2 24.7 118 20.4z"/><path d="M156.6 29.8l-3.3-3.9c-2 1.7-3.5 2.5-6.4 2.5 -3.7 0-5.4-2.5-4.8-5.9h16.6l0.5-2.9c1.3-7.3-1.9-12.6-9.3-12.6 -6.9 0-12.4 4.9-13.9 13.5 -1.9 10.7 3.6 13.6 9.9 13.6C150.6 33.9 153.5 32.5 156.6 29.8zM144 15.1c1-1.6 2.7-2.7 4.9-2.7 2.2 0 3.5 1.2 3.9 2.7 0.2 1 0.3 1.7 0.1 2.8h-10.1C143.2 16.8 143.5 16.1 144 15.1z"/><path d="M173.2 28h-2.4c-1.6 0-2.1-0.9-1.9-2.4l2.2-12.7h4.7l0.9-5h-4.7l1.4-7.8h-6.6l-1.4 7.8h-2.8l-0.9 5h2.8l-2.3 13.1c-0.7 3.8 1 7.6 6.3 7.6h3.6L173.2 28z"/><polygon points="186.9 7.2 180.3 7.2 175.6 33.6 182.2 33.6 "/><path d="M199.9 28h-2.4c-1.6 0-2.1-0.9-1.9-2.4l2.2-12.7h4.7l0.9-5h-4.7l1.4-7.8h-6.6l-1.4 7.8h-2.8l-0.9 5h2.8l-2.3 13.1c-0.7 3.8 1 7.6 6.3 7.6h3.6L199.9 28z"/><path d="M221.1 30.7c2.8-2.5 4-5.5 4.8-10.3 0.8-4.8 0.8-7.8-1.2-10.3 -1.3-1.7-3.7-3.2-7.7-3.2 -3.9 0-6.8 1.5-8.7 3.2 -2.8 2.5-4 5.5-4.8 10.3 -0.8 4.8-0.8 7.8 1.2 10.3 1.3 1.7 3.7 3.3 7.6 3.3C216.2 33.9 219.1 32.4 221.1 30.7zM210.1 20.4c0.5-2.7 1-5 2.7-6.4 0.9-0.8 1.9-1.2 3.3-1.2 1.3 0 2.3 0.4 2.9 1.2 1.1 1.4 0.9 3.7 0.4 6.4 -0.5 2.7-1 5.1-2.7 6.5 -0.9 0.8-2 1.2-3.3 1.2 -1.3 0-2.2-0.4-2.8-1.2C209.3 25.5 209.6 23.1 210.1 20.4z"/><path d="M236.7 17.7c0.6-3.3 3.1-4.9 5.1-4.9 1.6 0 2.4 0.6 3.2 1.6l5.9-5c-1.5-1.8-3.2-2.5-5.8-2.5 -2.8 0-5.6 1.3-7.2 2.8l0.4-2.5h-6.4l-4.7 26.5h6.6L236.7 17.7z"/><polygon points="186.9 5.3 187.8 0 181.2 0 180.3 5.3 "/><path d="M237.1 33.2l-0.3-0.5c0.2-0.1 0.3-0.2 0.3-0.4 0-0.2-0.2-0.4-0.4-0.4h-0.4V33.2h0.2v-0.5h0.2l0.3 0.5H237.1zM236.4 32.5v-0.4h0.2c0.1 0 0.2 0.1 0.2 0.2 0 0.1-0.1 0.2-0.2 0.2H236.4z"/><path d="M237.8 32.6c0-0.7-0.5-1.2-1.2-1.2 -0.7 0-1.2 0.5-1.2 1.2 0 0.7 0.5 1.2 1.2 1.2C237.3 33.7 237.8 33.2 237.8 32.6zM235.6 32.6c0-0.6 0.4-1 1-1 0.5 0 1 0.5 1 1 0 0.6-0.5 1-1 1C236.1 33.6 235.6 33.1 235.6 32.6z"/><path d="M644.2 104.9h13.5l-2.5 12c-3.5 1.5-7.2 2.1-10.9 2.1 -5.1 0-8.6-1.8-10-5.9 -1.1-3.2-0.5-9.8 1.5-19.4 1.8-8.4 4.4-18.2 7.2-22.2 2.8-4 7.3-7 13.2-7 2.5 0 4.7 0.5 6.1 1.8 1.4 1.2 2.2 3.3 1.7 6.5h36.9c4.5-23.3-9.3-33.3-39.9-33.3 -36.9 0-59.1 21.9-65.6 52.4 -6.5 30.5 6.4 52.4 42.2 52.4 16.3 0 34.7-2.6 51-6.6l11.1-52.1h-51.3L644.2 104.9zM477.2 141.4h32l12.9-60.6h0.3l8.2 60.6h47.3l21.2-99.5h-32l-12.8 60.2h-0.3l-8.3-60.2h-47.3L477.2 141.4zM427.1 141.4h39.4l21.2-99.5h-39.4L427.1 141.4zM316 141.4h32l12.9-60.6h0.3l8.2 60.6h47.3l21.1-99.5H405.7l-12.8 60.2h-0.3l-8.3-60.2h-47.3L316 141.4zM204.8 141.4h32l12.9-60.6h0.3l8.2 60.6h47.3l21.1-99.5h-32l-12.8 60.2h-0.3l-8.3-60.2h-47.3L204.8 141.4zM216 41.9h-39.4l-13.7 64.5c-1.7 7.9-6 10.9-10.2 10.9 -4.1 0-7.2-3-5.5-10.9l13.7-64.5h-39.4l-14.1 66.1C102.3 132 117 144 147 144c30 0 49.8-12 54.9-36L216 41.9zM50.9 83.4l4-18.9h3.6c7.7 0 12.5 1.5 10.9 8.8 -1.6 7.4-7.6 10.1-15.2 10.1H50.9zM0 141.4h38.6l7.5-35.4h4.5c6.3 0 8.4 1.9 8.2 6.9 -0.4 8.5-1.9 21.1-1.1 28.5h38.6c-1.4-15 1.9-29.1 1.5-37.6 -0.3-7.6-4.6-11.9-14.1-12.7l0.1-0.3c15.6-3.6 22.3-12.3 24.7-23.7 4-18.7-7.2-25.2-28.5-25.2H21.1L0 141.4z"/></svg>